<?xml version="1.0" encoding="UTF-8"?>
<svg id="Ebene_2" data-name="Ebene 2" xmlns="http://www.w3.org/2000/svg" viewBox="0 0 424 104.33">
  <defs>
    <style>
      .cls-1 {
        fill: #a1e8af;
        stroke-width: 0px;
      }
    </style>
  </defs>
  <g id="Ebene_1-2" data-name="Ebene 1">
    <path class="cls-1" d="m255.2,54.1h15.96c1.45,0,2.6,1.1,2.83,2.54.81,4.94,5.03,6.76,12.46,6.76,8.44,0,13.88-2.29,14.74-7.73.57-3.44-1.14-6.01-6.15-7.01l-18.03-3.72c-13.45-2.72-18.89-10.59-16.89-22.61,2.43-15.03,14.46-22.33,35.21-22.33,18.72,0,30.45,6.25,31.2,20.03.09,1.63-1.24,3.01-2.87,3.01h-15.35c-1.38,0-2.49-1.01-2.81-2.35-1.05-4.36-4.93-5.95-11.45-5.95-7.58,0-12.31,2.15-13.02,6.87-.57,3.01,1,5.15,5.15,6.01l17.03,3.43c16.03,3.29,22.18,10.74,19.89,24.33-2.72,16.03-15.17,23.18-38.21,23.18-20.72,0-32.2-6.58-32.55-21.52-.04-1.61,1.26-2.95,2.88-2.95m168.8,10.02c0-1.57-1.25-2.85-2.82-2.86-8.51-.08-57.44,0-61.23,0-7.59,0-11.23-3.95-11.25-12.61,0-1.45,1.03-2.7,2.46-2.91l26.97-3.95c13.74-1.86,19.89-6.3,21.61-16.32,2.86-15.74-8.44-25.47-29.34-25.47-23.76,0-37.07,12.02-41.65,37.78-4.63,25.64,4.89,40.73,26.41,40.73,0,0,57.41.06,65.99.06,1.58,0,2.84-1.28,2.84-2.86v-11.59Zm-72.14-34.65c3.32-8.64,9.29-13.43,17.11-13.43,7.01,0,10.73,3.15,10.16,7.87-.43,3.15-2.72,4.72-7.3,5.44l-17.42,3.25c-1.76.28-3.2-1.47-2.56-3.13ZM93.85,4.32l-15.84-2.74c-6.3-1.14-11.16-1.57-14.89-1.57C42.81,0,30.07,13.74,25.2,40.36c-4.29,23.76,1.86,35.35,15.89,35.35,5.01,0,10.16-1.43,14.88-5.01l9.28-7.47c.63-.51,1.49-.61,2.22-.26l1.1.53c.91.44,1.38,1.47,1.11,2.45l-1.96,7.05c-2.58,10.16-5.58,13.02-14.74,13.02H2.86c-1.58,0-2.86,1.28-2.86,2.86v12.59c0,1.58,1.28,2.86,2.86,2.86h51.96c20.18,0,28.91-7.3,32.34-27.33l11.34-66.07c.53-3.11-1.55-6.07-4.66-6.61Zm-24.68,40.43c-3.59,6.97-12.16,9.7-19.14,6.11-6.97-3.59-9.72-12.15-6.12-19.12,3.59-6.97,15.39-15.97,22.36-12.37,6.98,3.59,6.49,18.42,2.89,25.38ZM220.5,0c-24.18,0-37.35,12.02-41.79,37.78-4.87,27.19,5.15,40.79,30.62,40.79s37.35-11.88,41.79-37.64c4.86-27.33-5.15-40.93-30.63-40.93Zm8.3,38.5c-2.72,15.46-8.3,21.75-18.18,21.75s-12.02-5.72-9.59-20.18c2.72-15.46,8.16-21.61,18.03-21.61s12.16,5.87,9.73,20.04ZM141.57,0c-24.18,0-37.35,12.02-41.79,37.78-4.87,27.19,5.15,40.79,30.62,40.79s37.35-11.88,41.79-37.64c4.86-27.33-5.15-40.93-30.63-40.93Zm8.3,38.5c-2.72,15.46-8.3,21.75-18.18,21.75s-12.02-5.72-9.59-20.18c2.72-15.46,8.16-21.61,18.03-21.61s12.16,5.87,9.73,20.04Z"/>
  </g>
</svg>